<svg xmlns="http://www.w3.org/2000/svg" width="512" height="512" viewBox="0 0 512 512">
  <defs>
    <linearGradient id="bg" x1="74" y1="52" x2="438" y2="460" gradientUnits="userSpaceOnUse">
      <stop stop-color="#18181B"/>
      <stop offset="1" stop-color="#09090B"/>
    </linearGradient>
    <linearGradient id="tail" x1="137" y1="356" x2="381" y2="137" gradientUnits="userSpaceOnUse">
      <stop stop-color="#1D4ED8"/>
      <stop offset=".5" stop-color="#2563EB"/>
      <stop offset="1" stop-color="#60A5FA"/>
    </linearGradient>
    <linearGradient id="tip" x1="291" y1="154" x2="377" y2="122" gradientUnits="userSpaceOnUse">
      <stop stop-color="#DBEAFE"/>
      <stop offset="1" stop-color="#67E8F9"/>
    </linearGradient>
    <filter id="shadow" x="70" y="70" width="372" height="372" filterUnits="userSpaceOnUse">
      <feDropShadow dx="0" dy="18" stdDeviation="22" flood-color="#000" flood-opacity=".5"/>
    </filter>
  </defs>

  <rect width="512" height="512" rx="112" fill="url(#bg)"/>
  <circle cx="256" cy="256" r="175" fill="none" stroke="#27272A" stroke-width="18"/>
  <path d="M119 365A175 175 0 0 1 111 160" fill="none" stroke="#2563EB" stroke-width="15" stroke-linecap="round"/>
  <path d="M393 147A175 175 0 0 1 405 344" fill="none" stroke="#60A5FA" stroke-width="15" stroke-linecap="round"/>

  <g filter="url(#shadow)">
    <path d="M146 340c22 34 60 55 103 55 72 0 130-51 130-114 0-41-25-77-62-97 14 28 12 61-7 85-20 25-55 35-86 25-27-9-48-34-50-62-2-35 25-66 67-83-72 1-128 52-128 117 0 27 11 53 33 74Z" fill="url(#tail)"/>
    <path d="M241 149c45-25 91-27 135-7-7 26-27 47-59 53-19-18-45-34-76-46Z" fill="url(#tip)"/>
    <path d="M146 340c22 34 60 55 103 55 72 0 130-51 130-114" fill="none" stroke="#93C5FD" stroke-opacity=".3" stroke-width="8" stroke-linecap="round"/>
  </g>

  <g transform="translate(304 329)">
    <rect width="108" height="62" rx="22" fill="#18181B" stroke="#3F3F46" stroke-width="6"/>
    <text x="54" y="42" text-anchor="middle" fill="#F4F4F5" font-family="Arial, sans-serif" font-size="31" font-weight="800" letter-spacing="0">18+</text>
  </g>
</svg>
