<svg xmlns="http://www.w3.org/2000/svg" width="512" height="512" viewBox="0 0 512 512">
  <defs>
    <linearGradient id="tail" x1="151" y1="348" x2="369" y2="153" gradientUnits="userSpaceOnUse">
      <stop stop-color="#1D4ED8"/>
      <stop offset=".5" stop-color="#2563EB"/>
      <stop offset="1" stop-color="#60A5FA"/>
    </linearGradient>
    <linearGradient id="tip" x1="286" y1="166" x2="365" y2="137" gradientUnits="userSpaceOnUse">
      <stop stop-color="#DBEAFE"/>
      <stop offset="1" stop-color="#67E8F9"/>
    </linearGradient>
    <filter id="shadow" x="100" y="100" width="312" height="312" filterUnits="userSpaceOnUse">
      <feDropShadow dx="0" dy="14" stdDeviation="15" flood-color="#000" flood-opacity=".45"/>
    </filter>
  </defs>

  <circle cx="256" cy="256" r="150" fill="none" stroke="#3F3F46" stroke-width="15"/>
  <path d="M138 347a150 150 0 0 1-7-176" fill="none" stroke="#2563EB" stroke-width="13" stroke-linecap="round"/>
  <path d="M374 164a150 150 0 0 1 9 167" fill="none" stroke="#60A5FA" stroke-width="13" stroke-linecap="round"/>

  <g filter="url(#shadow)">
    <path d="M157 329c20 31 54 49 92 49 65 0 117-46 117-103 0-37-22-69-56-87 13 25 11 55-6 76-18 23-50 32-78 23-25-8-43-30-45-56-2-31 22-59 60-75-65 1-116 47-116 105 0 25 10 48 32 68Z" fill="url(#tail)"/>
    <path d="M241 156c40-23 82-24 122-6-7 23-25 42-53 48-18-17-41-31-69-42Z" fill="url(#tip)"/>
  </g>

  <g transform="translate(296 319)">
    <rect width="98" height="57" rx="20" fill="#18181B" stroke="#52525B" stroke-width="5"/>
    <text x="49" y="39" text-anchor="middle" fill="#F4F4F5" font-family="Arial, sans-serif" font-size="28" font-weight="800" letter-spacing="0">18+</text>
  </g>
</svg>
