<svg xmlns="http://www.w3.org/2000/svg" width="512" height="512" viewBox="0 0 512 512">
  <defs>
    <linearGradient id="blue" x1="162" y1="142" x2="358" y2="370" gradientUnits="userSpaceOnUse">
      <stop stop-color="#60A5FA"/>
      <stop offset=".48" stop-color="#2563EB"/>
      <stop offset="1" stop-color="#1D4ED8"/>
    </linearGradient>
    <linearGradient id="cyan" x1="300" y1="206" x2="366" y2="338" gradientUnits="userSpaceOnUse">
      <stop stop-color="#67E8F9"/>
      <stop offset="1" stop-color="#3B82F6"/>
    </linearGradient>
    <filter id="shadow" x="100" y="100" width="320" height="330" filterUnits="userSpaceOnUse">
      <feDropShadow dx="0" dy="14" stdDeviation="14" flood-color="#000" flood-opacity=".38"/>
    </filter>
  </defs>

  <g filter="url(#shadow)">
    <rect x="142" y="142" width="220" height="228" rx="48" fill="url(#blue)" stroke="#93C5FD" stroke-width="8"/>
    <path d="M207 204c12 0 21-12 21-27s-9-27-21-27-21 12-21 27 9 27 21 27Zm82 0c12 0 21-12 21-27s-9-27-21-27-21 12-21 27 9 27 21 27Zm-119 43c11 0 20-10 20-23s-9-23-20-23-20 10-20 23 9 23 20 23Zm156 0c11 0 20-10 20-23s-9-23-20-23-20 10-20 23 9 23 20 23Z" fill="#DBEAFE"/>
    <path d="M248 211c-34 0-62 32-62 63 0 25 19 39 41 39 8 0 15-2 21-6 6 4 13 6 21 6 22 0 41-14 41-39 0-31-28-63-62-63Z" fill="#EFF6FF"/>

    <path d="M286 217h61c18 0 32 14 32 32v96c0 18-14 32-32 32h-83c-18 0-32-14-32-32v-34" fill="#0F172A" stroke="#09090B" stroke-width="9" stroke-linejoin="round"/>
    <circle cx="339" cy="252" r="11" fill="#67E8F9"/>
    <path d="m247 344 42-45 25 26 20-21 36 38v3c0 13-10 23-23 23h-83c-13 0-23-10-23-23l6-1Z" fill="url(#cyan)"/>
  </g>
</svg>
