<svg xmlns="http://www.w3.org/2000/svg" width="512" height="512" viewBox="0 0 512 512">
  <defs>
    <linearGradient id="bg" x1="68" y1="54" x2="438" y2="456" gradientUnits="userSpaceOnUse">
      <stop stop-color="#18181B"/>
      <stop offset="1" stop-color="#09090B"/>
    </linearGradient>
    <linearGradient id="tail" x1="134" y1="383" x2="369" y2="130" gradientUnits="userSpaceOnUse">
      <stop stop-color="#1D4ED8"/>
      <stop offset=".53" stop-color="#2563EB"/>
      <stop offset="1" stop-color="#60A5FA"/>
    </linearGradient>
    <linearGradient id="tip" x1="284" y1="176" x2="369" y2="126" gradientUnits="userSpaceOnUse">
      <stop stop-color="#DBEAFE"/>
      <stop offset="1" stop-color="#F4F4F5"/>
    </linearGradient>
    <filter id="shadow" x="74" y="74" width="364" height="372" filterUnits="userSpaceOnUse">
      <feDropShadow dx="0" dy="18" stdDeviation="20" flood-color="#000" flood-opacity=".5"/>
    </filter>
  </defs>

  <rect width="512" height="512" rx="112" fill="url(#bg)"/>

  <g filter="url(#shadow)">
    <path d="M130 341c22 43 66 70 117 70 78 0 141-55 141-124 0-48-31-90-77-110 19 29 20 66 2 94-18 29-54 44-88 37-31-6-57-31-64-61-9-42 19-84 69-107-82 2-145 59-145 132 0 25 8 49 23 68 7 9 16 10 22 1Z" fill="url(#tail)"/>
    <path d="M230 140c50-29 101-31 149-7-8 29-30 52-68 63-22-22-49-41-81-56Z" fill="url(#tip)"/>
    <path d="M130 341c22 43 66 70 117 70 78 0 141-55 141-124" fill="none" stroke="#93C5FD" stroke-opacity=".28" stroke-width="9" stroke-linecap="round"/>
  </g>

  <g transform="translate(312 343)">
    <rect width="112" height="66" rx="22" fill="#18181B" stroke="#52525B" stroke-width="6"/>
    <text x="56" y="45" text-anchor="middle" fill="#F4F4F5" font-family="Arial, sans-serif" font-size="33" font-weight="800">18+</text>
  </g>
</svg>
