<svg xmlns="http://www.w3.org/2000/svg" width="512" height="512" viewBox="0 0 512 512">
  <defs>
    <linearGradient id="bg" x1="72" y1="48" x2="440" y2="464" gradientUnits="userSpaceOnUse">
      <stop stop-color="#18181B"/>
      <stop offset="1" stop-color="#09090B"/>
    </linearGradient>
    <linearGradient id="blue" x1="142" y1="128" x2="374" y2="392" gradientUnits="userSpaceOnUse">
      <stop stop-color="#60A5FA"/>
      <stop offset=".46" stop-color="#2563EB"/>
      <stop offset="1" stop-color="#1D4ED8"/>
    </linearGradient>
    <linearGradient id="cyan" x1="305" y1="181" x2="387" y2="337" gradientUnits="userSpaceOnUse">
      <stop stop-color="#67E8F9"/>
      <stop offset="1" stop-color="#3B82F6"/>
    </linearGradient>
    <filter id="shadow" x="70" y="70" width="372" height="382" filterUnits="userSpaceOnUse">
      <feDropShadow dx="0" dy="18" stdDeviation="20" flood-color="#000" flood-opacity=".42"/>
    </filter>
  </defs>

  <rect width="512" height="512" rx="112" fill="url(#bg)"/>
  <path d="M82 150C117 78 178 48 256 48c81 0 151 37 188 105" fill="none" stroke="#2563EB" stroke-opacity=".2" stroke-width="28" stroke-linecap="round"/>
  <circle cx="420" cy="90" r="72" fill="#2563EB" opacity=".1"/>
  <circle cx="90" cy="426" r="96" fill="#3B82F6" opacity=".08"/>

  <g filter="url(#shadow)">
    <path d="M135 178c0-25 20-45 45-45h134c25 0 45 20 45 45v148c0 25-20 45-45 45H180c-25 0-45-20-45-45V178Z" fill="#111827" stroke="#3F3F46" stroke-width="10"/>
    <path d="M173 153h142c15 0 27 12 27 27v144c0 15-12 27-27 27H173c-15 0-27-12-27-27V180c0-15 12-27 27-27Z" fill="url(#blue)"/>

    <path d="M206 191c13 0 23-13 23-29s-10-29-23-29-23 13-23 29 10 29 23 29Zm82 0c13 0 23-13 23-29s-10-29-23-29-23 13-23 29 10 29 23 29Zm-119 50c12 0 21-11 21-25s-9-25-21-25-21 11-21 25 9 25 21 25Zm156 0c12 0 21-11 21-25s-9-25-21-25-21 11-21 25 9 25 21 25Z" fill="#DBEAFE"/>
    <path d="M247 202c-36 0-66 34-66 67 0 27 21 42 44 42 9 0 16-2 22-6 7 4 14 6 23 6 23 0 44-15 44-42 0-33-30-67-67-67Z" fill="#EFF6FF"/>

    <path d="M293 207h62c19 0 34 15 34 34v105c0 19-15 34-34 34h-92c-19 0-34-15-34-34v-41" fill="#0F172A" stroke="#09090B" stroke-width="10" stroke-linejoin="round"/>
    <circle cx="348" cy="247" r="12" fill="#67E8F9"/>
    <path d="m250 345 45-50 27 28 22-23 35 38v8c0 13-11 24-24 24h-92c-13 0-24-11-24-24l11-1Z" fill="url(#cyan)"/>
  </g>

  <path d="M119 118a194 194 0 0 1 274 0" fill="none" stroke="#60A5FA" stroke-width="14" stroke-linecap="round"/>
  <path d="M393 394a194 194 0 0 1-274 0" fill="none" stroke="#2563EB" stroke-width="14" stroke-linecap="round"/>
  <circle cx="111" cy="126" r="11" fill="#60A5FA"/>
  <circle cx="401" cy="386" r="11" fill="#2563EB"/>
</svg>
