<svg xmlns="http://www.w3.org/2000/svg" width="512" height="512" viewBox="0 0 512 512">
  <defs>
    <linearGradient id="card" x1="156" y1="140" x2="356" y2="372" gradientUnits="userSpaceOnUse">
      <stop stop-color="#3B82F6"/>
      <stop offset="1" stop-color="#1D4ED8"/>
    </linearGradient>
    <linearGradient id="tail" x1="192" y1="338" x2="321" y2="178" gradientUnits="userSpaceOnUse">
      <stop stop-color="#BFDBFE"/>
      <stop offset=".34" stop-color="#60A5FA"/>
      <stop offset="1" stop-color="#EFF6FF"/>
    </linearGradient>
    <filter id="shadow" x="110" y="105" width="295" height="315" filterUnits="userSpaceOnUse">
      <feDropShadow dx="0" dy="14" stdDeviation="15" flood-color="#000" flood-opacity=".48"/>
    </filter>
  </defs>

  <g filter="url(#shadow)">
    <rect x="137" y="132" width="238" height="244" rx="53" fill="#0F172A" stroke="#52525B" stroke-width="10"/>
    <rect x="152" y="147" width="208" height="214" rx="40" fill="url(#card)"/>
    <circle cx="316" cy="193" r="17" fill="#67E8F9"/>

    <path d="M196 323c-15-37-4-80 29-105 24-18 57-22 85-10-22 7-37 25-40 47-3 27 14 51 40 59 17 5 35 2 50-6-13 33-45 55-82 55-36 0-67-15-82-40Z" fill="url(#tail)"/>
    <path d="M310 184c17 11 29 29 34 50-14-8-29-10-45-7 0-17 4-32 11-43Z" fill="#DBEAFE"/>
    <path d="M170 338 218 290l31 31 42-51 55 55v36H170v-23Z" fill="#1E40AF" fill-opacity=".38"/>
  </g>

  <g transform="translate(297 322)">
    <rect width="94" height="55" rx="19" fill="#18181B" stroke="#71717A" stroke-width="5"/>
    <text x="47" y="38" text-anchor="middle" fill="#F4F4F5" font-family="Arial, sans-serif" font-size="27" font-weight="800">18+</text>
  </g>
</svg>
