<svg xmlns="http://www.w3.org/2000/svg" width="512" height="512" viewBox="0 0 512 512">
  <defs>
    <linearGradient id="bg" x1="74" y1="52" x2="438" y2="460" gradientUnits="userSpaceOnUse">
      <stop stop-color="#18181B"/>
      <stop offset="1" stop-color="#09090B"/>
    </linearGradient>
    <linearGradient id="card" x1="136" y1="118" x2="382" y2="394" gradientUnits="userSpaceOnUse">
      <stop stop-color="#3B82F6"/>
      <stop offset="1" stop-color="#1D4ED8"/>
    </linearGradient>
    <linearGradient id="tail" x1="177" y1="355" x2="329" y2="166" gradientUnits="userSpaceOnUse">
      <stop stop-color="#BFDBFE"/>
      <stop offset=".34" stop-color="#60A5FA"/>
      <stop offset="1" stop-color="#EFF6FF"/>
    </linearGradient>
    <filter id="shadow" x="74" y="80" width="364" height="378" filterUnits="userSpaceOnUse">
      <feDropShadow dx="0" dy="18" stdDeviation="20" flood-color="#000" flood-opacity=".5"/>
    </filter>
  </defs>

  <rect width="512" height="512" rx="112" fill="url(#bg)"/>
  <path d="M111 160c26-47 69-79 120-94" fill="none" stroke="#2563EB" stroke-opacity=".34" stroke-width="18" stroke-linecap="round"/>
  <path d="M399 352c-25 47-68 79-119 94" fill="none" stroke="#60A5FA" stroke-opacity=".34" stroke-width="18" stroke-linecap="round"/>

  <g filter="url(#shadow)">
    <rect x="116" y="113" width="280" height="286" rx="62" fill="#0F172A" stroke="#3F3F46" stroke-width="12"/>
    <rect x="134" y="131" width="244" height="250" rx="47" fill="url(#card)"/>
    <circle cx="326" cy="183" r="20" fill="#67E8F9"/>

    <path d="M186 334c-18-43-5-94 34-123 28-21 66-26 99-12-25 8-44 30-47 56-4 31 16 59 46 68 20 6 41 3 58-7-15 38-52 64-95 64-43 0-80-18-95-46Z" fill="url(#tail)"/>
    <path d="M319 199c20 13 35 34 40 59-17-9-35-12-53-8 0-20 5-37 13-51Z" fill="#DBEAFE"/>
    <path d="M186 334c-18-43-5-94 34-123 28-21 66-26 99-12" fill="none" stroke="#EFF6FF" stroke-opacity=".32" stroke-width="8" stroke-linecap="round"/>
    <path d="M154 352 211 295l37 37 48-58 63 63v44H154v-29Z" fill="#1E40AF" fill-opacity=".38"/>
  </g>

  <g transform="translate(316 338)">
    <rect width="110" height="64" rx="22" fill="#18181B" stroke="#52525B" stroke-width="6"/>
    <text x="55" y="43" text-anchor="middle" fill="#F4F4F5" font-family="Arial, sans-serif" font-size="32" font-weight="800">18+</text>
  </g>
</svg>
