<svg xmlns="http://www.w3.org/2000/svg" width="512" height="512" viewBox="0 0 512 512">
  <defs>
    <linearGradient id="tail" x1="150" y1="365" x2="355" y2="145" gradientUnits="userSpaceOnUse">
      <stop stop-color="#1D4ED8"/>
      <stop offset=".53" stop-color="#2563EB"/>
      <stop offset="1" stop-color="#60A5FA"/>
    </linearGradient>
    <filter id="shadow" x="105" y="102" width="305" height="322" filterUnits="userSpaceOnUse">
      <feDropShadow dx="0" dy="14" stdDeviation="15" flood-color="#000" flood-opacity=".48"/>
    </filter>
  </defs>

  <g filter="url(#shadow)">
    <path d="M151 327c19 37 57 61 101 61 68 0 122-48 122-108 0-42-27-78-67-96 16 26 17 57 2 82-16 25-47 38-77 32-27-6-49-27-55-54-8-36 16-72 60-92-71 2-126 51-126 114 0 22 7 43 20 59 6 8 14 9 20 2Z" fill="url(#tail)"/>
  </g>

  <g transform="translate(296 327)">
    <rect width="98" height="57" rx="19" fill="#18181B" stroke="#71717A" stroke-width="5"/>
    <text x="49" y="39" text-anchor="middle" fill="#F4F4F5" font-family="Arial, sans-serif" font-size="28" font-weight="800">18+</text>
  </g>
</svg>
